<svg width="30" height="32" viewBox="0 0 30 32" fill="none" xmlns="http://www.w3.org/2000/svg">
<path d="M10.3604 29.7993V25.0527C10.3604 23.8411 11.3498 22.8588 12.5704 22.8588H17.032C17.6181 22.8588 18.1802 23.09 18.5947 23.5014C19.0091 23.9128 19.242 24.4709 19.242 25.0527V29.7993C19.2383 30.3031 19.4373 30.7874 19.7948 31.1449C20.1523 31.5024 20.6387 31.7035 21.1462 31.7035H24.1901C25.6117 31.7071 26.9764 31.1491 27.983 30.1524C28.9895 29.1558 29.5552 27.8025 29.5552 26.3912V12.8689C29.5552 11.7289 29.0462 10.6475 28.1653 9.91609L17.8104 1.70615C16.0091 0.266668 13.4283 0.313146 11.6808 1.81654L1.56215 9.91609C0.63965 10.6259 0.088282 11.7105 0.0610352 12.8689V26.3774C0.0610352 29.3189 2.46308 31.7035 5.42614 31.7035H8.40058C9.45451 31.7035 10.311 30.8594 10.3187 29.8131L10.3604 29.7993Z" fill="#4E99FD"/>
</svg>
